<?xml version="1.0" encoding="utf-8"?>
<!-- Generator: Adobe Illustrator 19.0.0, SVG Export Plug-In . SVG Version: 6.00 Build 0)  -->
<svg version="1.1" id="layer" xmlns="http://www.w3.org/2000/svg" xmlns:xlink="http://www.w3.org/1999/xlink" x="0px" y="0px"
	 viewBox="13.9 266.5 615.9 104.7" width="615.9" height="104.7" style="enable-background:new -153 -46 652 652;" xml:space="preserve">
<style type="text/css">
	.st0{fill:#888888;}
	.st1{fill:#49ACE2;}
</style>
<path id="XMLID_23_" class="st0" d="M468.8,239.9l-3.1,10.8h-20.8l-9.1,31.5h-13.5l9.1-31.5h-13.9l3.1-10.8H468.8z M355.6,258.2
	c-20.9,0.5-26.9,4-26.9,4l-1.3,4.4h13.2c-0.2,0.6-0.3,1-0.3,1.2c-0.4,1.2-0.8,2.1-1.2,2.7c-0.4,0.6-1,1-1.7,1.3
	c-0.9,0.3-1.9,0.5-3.2,0.6c-1.3,0.1-4.9,0.1-10.7,0.2c-6-0.1-6.5-0.2-7.6-0.3c-1.1-0.1-1.9-0.4-2.4-1c-0.5-0.6-0.7-1.6-0.6-3
	c0.2-1.4,0.8-3.9,1.8-7.5c0.9-3.2,1.7-5.4,2.3-6.7c0.6-1.3,1.4-2.3,2.2-2.8c0.9-0.6,2.3-0.9,4.3-1.1c2-0.2,2.2-0.3,6.7-0.3
	c4.1,0,7.2,0.1,9.4,0.2c2.3,0.1,3.7,0.4,4.2,1c0.3,0.3,0.5,0.6,0.5,1.1c0,0.4-0.2,1.2-0.5,2.4h12.9c0.2-0.5,0.3-1.1,0.4-1.6
	c0.6-2.2,0.9-4,1.1-5.3c0.2-1.9-0.2-3.4-1.1-4.6c-0.7-0.9-1.6-1.6-2.9-2c-1.8-0.6-4.2-1.1-7.3-1.3c-3-0.3-7.2-0.4-12.5-0.4
	c-9,0-12.8,0.4-17.3,1.1c-4.2,0.7-7.3,2.7-9.5,5.9c-1.1,1.5-2,3.3-2.7,5.3c-0.8,2-1.7,4.9-2.8,8.7c-1.6,5.7-2.6,9.5-2.9,11.4
	c-0.3,2.1-0.4,3.7-0.1,5c0.3,1.3,0.9,2.3,1.9,3.1c1.4,1.2,3.6,2,6.5,2.3c2.9,0.4,8,0.6,15.2,0.6c5.7,0,7.1-0.1,9.9-0.2
	c2.8-0.2,5.4-0.4,7.7-0.9c5.3-1,9-4,10.9-8.8c1.2-3,2.6-7.5,4.4-13.5C355.4,259.2,355.5,258.8,355.6,258.2 M403.2,239.9h13.5
	l-12.2,42.3h-13.5l4.4-15.3h-23.1l-4.4,15.3h-12.4h-1.1l1.1-3.8l11.2-38.5H380l-4.4,15.1h23.1L403.2,239.9z M71.8,239.9l-1.1,3.8
	l-1.8,6.2H37.1l-2.3,8H65l-2.8,9.7H32l-4.2,14.6H14.9l12.2-42.3h43.6H71.8z M277.1,243c0.9,1.6,0.9,4.4-0.2,8.2
	c0,0.2-0.1,0.4-0.2,0.7c-0.1,0.4-0.2,0.8-0.4,1.3h-12.1c0.3-1.2,0.4-2,0.4-2.4c0-0.4-0.2-0.8-0.6-1.1c-0.5-0.3-1.3-0.5-2.7-0.6
	c-1.3-0.1-4.2-0.1-8.6-0.1c-5.3,0-8.6,0.2-9.8,0.5c-1.3,0.3-2.1,1.3-2.5,2.8c-0.4,1.5-0.1,2.4,1,2.7c0.9,0.3,5.2,0.5,13,0.8
	c6.6,0.2,10.9,0.4,13.1,0.7c2.2,0.3,3.8,0.8,4.9,1.6c1.2,0.9,1.9,2.2,2.1,3.8c0.2,1.6-0.2,4-1,7c-1.1,4-2.5,6.9-4.1,8.9
	c-1.2,1.4-2.6,2.5-4.1,3.2c-1.6,0.7-3.7,1.2-6.3,1.4c-2.8,0.2-7.8,0.4-15.2,0.4c-6.2,0-10.7-0.2-13.5-0.5c-2.8-0.3-4.9-0.9-6.1-1.8
	c-0.5-0.3-0.8-0.7-1.2-1.1c-0.6-0.7-0.9-1.5-1-2.5c-0.2-1.5,0.2-3.7,1-6.7l0,0l0.6-2h12.1c-0.6,2.1-0.6,3.4,0.1,4
	c0.5,0.4,1.2,0.6,2.1,0.7c0.9,0.1,3.9,0.1,8.9,0.2c5.3,0,8.5-0.1,9.5-0.1c1.1-0.1,2-0.2,2.7-0.5c1-0.4,1.8-1.4,2.3-3.2
	c0.4-1.3,0.3-2.1-0.3-2.5c-0.5-0.4-1.8-0.7-3.8-0.7c-1.5,0-4.8-0.1-9.7-0.4c-5-0.3-8.3-0.4-9.8-0.4c-3-0.1-5.2-0.4-6.7-0.9
	c-1.5-0.5-2.5-1.3-3.1-2.4c-1-1.8-1-4.9,0.2-9.1c1.3-4.8,3.2-8.1,5.5-10.1c1.8-1.5,4.1-2.5,7-2.9c2.9-0.4,8.6-0.6,17.1-0.6
	c6,0,10.2,0.2,12.5,0.5c3.2,0.5,5.3,1.4,6.4,2.7C276.9,242.6,277,242.8,277.1,243 M189.1,265.2l-2,6.8h31.4l-2.9,10.2h-43h-1l1-3.6
	l11.2-38.7h42.7h1.1l-1.1,3.8l-1.8,6.2h-31.1l-1.8,6.1h29.4l-2.7,9.3H189.1z M175.1,253.6c-0.9,3.1-1.7,5.3-2.5,6.8
	c-0.8,1.4-1.9,2.6-3.2,3.5c-1.4,0.9-3.3,1.6-5.7,1.9c2.7,0.2,4.4,1,5.2,2.3c0.4,0.8,0.6,1.8,0.5,2.9c-0.2,1.1-0.8,3.5-1.8,7.2
	l-1.1,3.9h-12.7l0.7-2.3c0.7-2.4,1.7-5.7,1.8-6.7c0.1-1,0-1.8-0.3-2.3c-0.3-0.5-0.9-0.8-1.7-0.9c-0.8-0.1-2.5-0.2-5.2-0.2h-10.5
	l1.6-5.5c4.8-3.4,17-3.6,17-3.6c0.6,0,1.2-0.2,1.7-0.5c0.6-0.4,1.2-0.9,1.6-1.6c0.4-0.7,0.8-1.7,1.3-3.2c0.4-1.4,0.6-2.4,0.5-3.1
	c-0.1-0.7-0.4-1.2-0.9-1.5c-0.4-0.2-0.9-0.3-1.5-0.4c-0.6,0-2.4-0.1-5.4-0.1h-13.1l-1.1,3.7l-1.9,6.7l-3.1,10.6l-2.1,7.4l-1,3.4
	h-11.8h-1.1l1.1-3.8l11.2-38.5h26.2c7.3,0,11.6,0.1,13.1,0.2c1.4,0.1,2.7,0.6,3.8,1.4c0.4,0.3,0.8,0.7,1.1,1.1c0.6,0.8,1,1.8,1,2.9
	c0.1,1.5-0.3,3.7-1,6.6C175.4,252.6,175.3,253.1,175.1,253.6 M122.5,254c0.7-3.1,1.1-5.4,1.1-7.1c0-1.6-0.3-2.9-1.1-4
	c-1.1-1.6-3.1-2.6-5.9-3c-3.3-0.5-9.5-0.7-18.6-0.7c-2.3,0-2.4,0-4.4,0v0c-4.1,0.1-5.4,0.3-7.7,0.6c-5.1,0.7-8.8,3-11.1,7
	c-1.5,2.7-3.3,7.3-5.1,13.8c-0.8,2.7-1.4,5.2-1.9,7.2c-0.7,3.1-1.1,5.4-1.1,7.1c0,1.6,0.3,2.9,1.1,4c1.1,1.6,3.1,2.6,5.9,3
	c3.3,0.5,6.6,0.7,15.8,0.7c2.2,0,4.2,0,6.1,0v0c4.4-0.1,6.5-0.3,8.8-0.6c5.1-0.7,8.8-3,11.1-7c1.6-2.8,3.3-7.5,5.2-14.1
	C121.5,258.4,122.1,256,122.5,254 M109.1,255.5c-0.2,1.4-0.8,3.7-1.6,6.7c-0.7,2.6-1.4,4.4-2,5.5c-0.6,1.1-1.3,2-2.3,2.5
	c-1,0.6-2.4,1.1-4.2,1.2c-1.4,0.1-1.9,0.2-5.5,0.3v0c-0.3,0-0.6,0-1,0c-5.5,0-6.2-0.1-8.1-0.4c-2.5-0.3-3.7-1.5-3.6-3.7
	c0.1-1.2,0.5-3,1.2-5.6c1.2-4.3,2.3-7.1,3.2-8.6c0.9-1.4,2.2-2.4,3.9-2.8c1.2-0.3,1.3-0.5,6.3-0.5v0c5.5,0,9.1,0.1,10.5,0.3
	c1.5,0.2,2.5,0.8,2.9,1.7C109.3,253,109.3,254.1,109.1,255.5 M278.4,257.2c5-3.3,14.8-4.3,20-4l-8.4,28.9h-12.4h-1.1l1.1-3.8
	l6.3-21.6C282.8,256.8,279.5,257.2,278.4,257.2 M4,279.2c-6,12.5-19.1,4.6-19.1,4.6c-29.7-19.4-61-31.3-89.6-4.9
	c23.9-55.5,81.2-30.7,114.6-11.8L4,279.2 M-125.4,283.2c7.1-12.3,19.8-2.7,19.8-2.7c27.6,17.7,56.7,27.9,83.3,3.4
	c-22.7,52.7-77.2,29.2-108.8,11.2L-125.4,283.2"/>
<path id="XMLID_2_" class="st1" d="M288.7,239.9h13.5l-2.2,7.5c-6.1,0.6-14.7,2.1-19.8,5.6c1-1.4,5-4.6,6.3-5.6L288.7,239.9z
	 M-67.5,266.3c-9,0.4-13.5,2.3-13.5,2.3c-0.2,2.1-0.1,4.2,0.3,6.3c2.3,13,14.6,21.6,27.6,19.4c8.2-1.4,14.6-6.9,17.7-13.9
	c-2.7,3.3-6.5,5.7-11,6.5c-9.9,1.7-19.3-4.9-21-14.7C-67.8,270.1-67.8,268.2-67.5,266.3 M13.3,247.3l3.7-8.6
	c-33.7-12-71.8-17.4-94.9,6.4c25-10.8,51.9-1.2,74.2,9.4C-3.8,254.5,7.7,259.8,13.3,247.3 M35.7,289.7c-1.6-0.3-3.8-0.5-6.8-0.5
	c-3.2,0-6,0.1-8.4,0.4c-1.5,0.2-2.7,0.4-3.6,0.7c-0.9,0.3-1.8,0.7-2.7,1.3c-1.8,1.2-3.1,3.1-3.8,5.6c-0.7,2.4-0.7,4.1-0.1,5.4
	c0.6,1.1,1.5,1.9,2.9,2.3c1.3,0.4,3,0.7,5.3,0.7c6.9,0,10.3,0,11.3,0.1c1.3,0,2,0.2,2.3,0.3c0.4,0.1,0.5,0.3,0.5,0.5
	c0,0.3,0,0.9-0.3,2.1c-0.6,1.9-1.5,3-3,3.3c-1.7,0.4-4.5,0.6-8.3,0.6c-7.1,0-8.6-0.4-8.9-0.6c-0.4-0.2-0.4-0.4-0.4-0.4
	c0-0.2,0-0.9,0.5-2.7c0-0.1,0.1-0.2,0.1-0.5l0.3-1.1H7.5L6.9,309c-0.5,1.8-0.7,3.2-0.6,4.1c0.2,1.1,0.8,2,1.8,2.7
	c0.8,0.5,1.9,0.9,3.4,1.1c1.4,0.2,3.5,0.3,6.4,0.3c5.6,0,9.4-0.2,11.7-0.7c2.4-0.5,4.3-1.4,5.5-2.8c1-1.2,1.9-2.8,2.5-4.8
	c0.6-2.2,0.7-3.9,0.1-5.2c-0.5-1.1-1.3-1.8-2.4-2.2c-1-0.4-2.5-0.6-4.4-0.6c-4.5,0-7.3,0-8.5,0c-4,0-5.7-0.3-6.4-0.6
	c-0.3-0.1-0.7-0.3-0.8-0.5c0-0.1-0.1-0.6,0.3-2c0.3-1.1,0.8-1.9,1.3-2.3c0.6-0.5,1.8-0.9,3.4-1.1c1.7-0.2,4.2-0.4,7.6-0.4
	c2.6,0,4.6,0.1,5.8,0.4c0.9,0.2,1.5,0.5,1.6,0.9c0,0,0.1,0.4-0.3,2c0,0.1,0,0.1-0.1,0.3l-0.4,1.3h5.3l0.2-0.6c0.5-1.8,0.7-3.1,0.7-4
	c-0.1-1-0.4-1.9-1.1-2.6C38.6,290.6,37.4,290,35.7,289.7 M87.3,290.7c0.7,0.6,1.1,1.4,1.3,2.3c0.3,1.3,0,3.1-0.7,5.5
	c-0.5,1.8-1.1,3.3-1.7,4.3c-0.7,1.1-1.5,2-2.4,2.7c-1,0.7-1.9,1.1-2.8,1.3c-0.9,0.2-2.1,0.4-3.8,0.4c-0.5,0-1.7,0-3.6,0l-2.2,0H59.9
	l-2.9,9.8h-5.3l8.1-27.7H77c4.6,0.1,7,0.2,7.8,0.3C85.8,289.7,86.6,290.1,87.3,290.7 M82.8,298.1c0.5-1.6,0.6-2.3,0.6-2.6
	c0-0.5-0.1-0.6-0.2-0.7c-0.2-0.2-0.7-0.4-1.2-0.5c-0.5-0.1-1.9-0.2-5.9-0.2H63.8l-2.4,8.4h11.7h0.1c3.3,0,5.1-0.1,5.9-0.1
	c0.7-0.1,1.3-0.3,1.8-0.7c0.4-0.2,0.7-0.6,0.9-1.1C82.1,300,82.4,299.2,82.8,298.1 M180.5,289.6c-1.2-0.2-4-0.3-8.5-0.3h-16.9
	l-8.1,27.7h5.3l6.7-23h12.1c3.8,0,5.5,0.1,6.3,0.2c1.2,0.1,1.6,0.4,1.8,0.5c0.3,0.2,0.4,1.1-0.1,2.9c-0.6,2-1.3,3.3-2.2,3.8
	c-0.6,0.3-1.3,0.5-2.2,0.6c-1,0.1-3.1,0.1-6.5,0.1h-7.8l-1.6,4.8h8.6c2.7,0,4.6,0,5.1,0c0.4,0,0.9,0.1,1.5,0.1
	c0.9,0.2,1.5,0.6,1.3,1.9c-0.1,0.8-0.5,2.2-1.1,4.3l-1,3.6h5.3l1.3-4.3c0.6-2.2,1-3.7,1.1-4.5c0.1-0.9-0.1-1.8-0.5-2.5
	c-0.2-0.2-0.4-0.5-0.6-0.7c0.7-0.3,1.3-0.7,1.8-1.1c0.6-0.5,1.2-1.3,1.6-2.2c0.4-0.8,0.8-2,1.3-3.6c0.6-2.1,0.8-3.8,0.6-5
	C184.5,291.8,183.5,290,180.5,289.6 M197.6,294.1h13.1l-6.7,23h5.3l6.7-23h13l1.4-4.8H199L197.6,294.1z M136.3,291.7
	c0.5,0.6,0.7,1.4,0.8,2.3c0.1,0.8,0,1.9-0.3,3.2c-0.3,1.7-0.8,3.8-1.5,6.3c-0.9,3.2-1.8,5.7-2.6,7.4c-0.9,1.8-1.8,3.1-2.9,3.9
	c-1.1,0.9-2.7,1.5-4.6,1.8c-1.4,0.2-3.5,0.4-6.1,0.4v0l-0.8,0h0l-0.9,0v0c-2.2,0-4.7,0-7.6-0.1c-2.4-0.1-3.9-0.1-4.7-0.2
	c-1.4-0.1-2.4-0.4-3.2-0.7c-0.8-0.4-1.5-0.9-2-1.7c-0.6-1-0.9-2.3-0.7-4c0.2-1.5,0.8-4,1.8-7.6c1.2-4.3,2.4-7.2,3.5-9
	c1.4-2.3,3.6-3.6,6.4-4c1.5-0.2,3.6-0.4,6.4-0.5v0l0.8,0h0l0.9,0v0c1.1,0,2.4,0,3.7,0c4.5,0,7.6,0.1,9.4,0.4
	C134.2,290,135.5,290.6,136.3,291.7 M131.8,296c0.1-0.6,0-1.3-1.5-1.6c-0.9-0.1-2-0.2-3.2-0.3c-1.1,0-3.3-0.1-7.2-0.1
	c-0.3,0-0.5,0-0.8,0l-0.8,0h0l-0.3,0c-2.6,0-4.6,0.2-6,0.4c-0.9,0.1-1.6,0.4-2,0.7c-0.4,0.3-0.8,0.9-1.2,1.6
	c-0.7,1.4-1.4,3.5-2.2,6.2c-0.9,2.9-1.4,5-1.6,6.2c-0.3,1.6-0.1,2,0,2c0.1,0.2,0.4,0.3,0.7,0.4c0.5,0.2,1.4,0.3,2.7,0.4
	c2.2,0.1,4.7,0.2,7.6,0.2c0.5,0,1.1,0,1.6,0v0l1.7,0v0c2.5-0.1,4.4-0.2,5.9-0.5c1.3-0.2,2.2-0.9,2.8-2.2c0.7-1.6,1.5-3.8,2.3-6.5
	C131,299.8,131.6,297.4,131.8,296 M269,291.5c-0.8-0.9-2.1-1.5-3.8-1.8c-1.6-0.3-3.8-0.5-6.8-0.5c-3.2,0-6,0.1-8.4,0.4
	c-1.5,0.2-2.7,0.4-3.6,0.7c-0.9,0.3-1.8,0.7-2.7,1.3c-1.8,1.2-3.1,3.1-3.8,5.6c-0.7,2.4-0.7,4.1-0.1,5.4c0.6,1.1,1.5,1.9,2.9,2.3
	c1.3,0.4,3,0.7,5.3,0.7c6.9,0,10.2,0,11.3,0.1c1.3,0,2,0.2,2.3,0.3c0.4,0.1,0.5,0.3,0.5,0.5c0,0.2,0.1,0.9-0.3,2.1
	c-0.6,1.9-1.5,3-3,3.3c-1.7,0.4-4.5,0.6-8.3,0.6c-7.1,0-8.6-0.4-8.9-0.6c-0.4-0.2-0.4-0.4-0.4-0.4c0-0.2,0-0.9,0.5-2.7
	c0-0.1,0.1-0.2,0.1-0.5l0.3-1.1h-5.2l-0.2,0.6c-0.2,0.7-0.3,1.1-0.4,1.2c-0.5,1.8-0.7,3.2-0.6,4.1c0.2,1.1,0.7,2,1.8,2.7
	c0.8,0.5,1.9,0.9,3.4,1.1c1.4,0.2,3.5,0.3,6.4,0.3c5.6,0,9.4-0.2,11.7-0.7c2.4-0.5,4.3-1.4,5.5-2.8c1-1.2,1.9-2.8,2.5-4.8
	c0.6-2.2,0.7-3.9,0.1-5.2c-0.5-1.1-1.3-1.8-2.4-2.2c-1-0.4-2.5-0.6-4.4-0.6c-4.5,0-7.3,0-8.5,0c-4,0-5.7-0.3-6.4-0.6
	c-0.3-0.1-0.7-0.3-0.8-0.5c0-0.2-0.1-0.7,0.3-2c0.3-1.1,0.8-1.9,1.4-2.3c0.6-0.5,1.8-0.9,3.4-1.1c1.7-0.2,4.2-0.4,7.6-0.4
	c2.6,0,4.6,0.1,5.8,0.4c0.9,0.2,1.5,0.5,1.6,0.9c0,0,0.1,0.4-0.4,2.1l-0.4,1.4h5.3l0.2-0.6c0.5-1.8,0.7-3.1,0.7-4
	C270.1,293.1,269.8,292.2,269,291.5"/>
</svg>
