<?xml version="1.0" encoding="utf-8"?>
<!-- Generator: Adobe Illustrator 19.2.1, SVG Export Plug-In . SVG Version: 6.00 Build 0)  -->
<svg version="1.1" id="layer" xmlns="http://www.w3.org/2000/svg" xmlns:xlink="http://www.w3.org/1999/xlink" x="0px" y="0px"
	 viewBox="12.8 273.8 616.0 96.4" width="616.0" height="96.4" style="enable-background:new 0 0 652 652;" xml:space="preserve">
<polyline points="20.8,283.8 20.8,360.1 31.1,360.1 31.1,327.1 66.2,327.1 66.2,317.4 31.1,317.4 31.1,293.5 68.8,293.5 68.8,283.8 
	"/>
<path d="M88,283.8v46.8c0,2.4,0.3,4.8,1,7.4c0.6,2.6,1.7,4.9,3.2,7.1c1.5,2.2,3.5,3.9,5.9,5.3c2.4,1.4,5.5,2,9.1,2
	c3.6,0,6.6-0.7,9.1-2c2.4-1.4,4.4-3.1,5.9-5.3c1.5-2.2,2.6-4.5,3.2-7.1c0.6-2.6,1-5,1-7.4v-46.8h10.4v48.4c0,4.5-0.8,8.5-2.3,12.1
	c-1.5,3.6-3.6,6.8-6.3,9.4c-2.7,2.7-5.8,4.7-9.4,6.2c-3.6,1.4-7.5,2.2-11.7,2.2c-4.2,0-8.1-0.7-11.7-2.2c-3.6-1.4-6.7-3.5-9.4-6.2
	c-2.7-2.7-4.7-5.8-6.3-9.4c-1.5-3.6-2.3-7.7-2.3-12.1v-48.4"/>
<polyline points="148.4,283.8 158.7,283.8 158.7,350.4 193.8,350.4 193.8,360.1 148.4,360.1 "/>
<polyline points="203,283.8 213.4,283.8 213.4,350.4 248.5,350.4 248.5,360.1 203,360.1 "/>
<path d="M289.2,344.2c1.9,2.8,4.3,4.9,7.2,6.2c2.9,1.3,5.9,2,9,2c1.7,0,3.5-0.3,5.3-0.8c1.8-0.5,3.4-1.3,4.9-2.4
	c1.5-1.1,2.7-2.4,3.6-4c0.9-1.6,1.4-3.4,1.4-5.5c0-3-0.9-5.2-2.8-6.7c-1.9-1.5-4.2-2.8-7-3.9c-2.8-1-5.8-2.1-9.1-3
	c-3.3-1-6.3-2.3-9.1-4c-2.8-1.7-5.1-4-7-7c-1.9-2.9-2.8-6.8-2.8-11.8c0-2.2,0.5-4.6,1.5-7.1c1-2.5,2.5-4.8,4.6-6.9
	c2.1-2.1,4.8-3.8,8-5.2c3.3-1.4,7.2-2.1,11.8-2.1c4.2,0,8.2,0.6,12,1.7c3.8,1.2,7.1,3.5,10,7l-8.4,7.7c-1.3-2-3.1-3.6-5.5-4.9
	c-2.4-1.2-5.1-1.8-8.1-1.8c-2.9,0-5.3,0.4-7.2,1.1c-1.9,0.8-3.4,1.7-4.6,2.9c-1.2,1.2-2,2.5-2.4,3.8c-0.5,1.4-0.7,2.6-0.7,3.8
	c0,3.2,0.9,5.7,2.8,7.4c1.9,1.7,4.2,3.1,7,4.2c2.8,1.1,5.8,2.1,9.1,2.9c3.3,0.9,6.3,2.1,9.1,3.6c2.8,1.5,5.1,3.6,7,6.3
	c1.9,2.6,2.8,6.2,2.8,10.8c0,3.7-0.7,7-2.1,9.9c-1.4,2.9-3.3,5.4-5.7,7.4c-2.4,2-5.2,3.6-8.4,4.6c-3.2,1.1-6.7,1.6-10.4,1.6
	c-4.9,0-9.5-0.9-13.9-2.6c-4.4-1.7-7.9-4.4-10.5-8"/>
<polyline points="336.5,283.8 347.2,283.8 364.1,344.8 364.3,344.8 382.3,283.8 394.2,283.8 412.1,344.8 412.4,344.8 429.2,283.8 
	440,283.8 417.8,360.1 406.8,360.1 388.4,297.8 388.1,297.8 369.8,360.1 358.8,360.1 "/>
<rect x="447.5" y="283.8" width="10.4" height="76.4"/>
<polyline points="470.9,283.8 484.4,283.8 526.5,346.5 526.7,346.5 526.7,283.8 537.1,283.8 537.1,360.1 523.9,360.1 481.4,297.3 
	481.2,297.3 481.2,360.1 470.9,360.1 "/>
<path d="M620.8,342.2l-0.2-0.3l-12.2-22l-0.3-0.5l-0.5,0.3l-8.8,4.9l-0.5,0.3l0.3,0.5l8.9,16.1c-7,8.1-18.3,11.8-29.5,8.5
	c-15.4-4.5-24.3-20.7-19.8-36.1c4.5-15.4,20.7-24.3,36.1-19.8c2,0.6,3.9,1.4,5.9,2.4l0.5,0.3l0.3-0.5l4.9-8.6l0.3-0.5l-0.5-0.3
	c-2.7-1.5-5.5-2.7-8.3-3.5c-21.3-6.2-43.6,6.1-49.8,27.4c-6.2,21.3,6.1,43.6,27.4,49.8c17.6,5.1,36.4-2.3,45.6-18"/>
</svg>
