<?xml version="1.0" encoding="utf-8"?>
<!-- Generator: Adobe Illustrator 19.2.1, SVG Export Plug-In . SVG Version: 6.00 Build 0)  -->
<svg version="1.1" id="layer" xmlns="http://www.w3.org/2000/svg" xmlns:xlink="http://www.w3.org/1999/xlink" x="0px" y="0px"
	 viewBox="12.1 259.1 616.0 126.3" width="616.0" height="126.3" style="enable-background:new 0 0 652 652;" xml:space="preserve">
<style type="text/css">
	.st0{fill:#8BB241;}
</style>
<path d="M84.1,322.3c0-11.5-4.6-16-15.3-19.3L42,294.5c-5.9-1.9-6.4-5-6.4-8.3c0-5.2,2.7-7.3,6.2-7.3h38.5v-11H38.2
	c-11.6,0-16.7,7.2-16.7,17.7c0,10,2.8,16.2,12.4,19.2l28.9,9.1c6.4,2,7.1,5.4,7.1,8.3c0,2.5-0.3,7.9-6.9,7.9H22.4v11h46
	C79.7,341.1,84.1,333.1,84.1,322.3"/>
<rect x="103.9" y="267.9" width="13.8" height="73.2"/>
<path d="M139.3,310.1c-2.1-1.8-4.3-3.7-4.3-6.7c0-2.5,1.8-3.8,3.4-5.4l31.7-30H153l-27.7,27.4c-2,2-3.6,5.3-3.6,8.2
	c0,3.6,0.6,6.9,3.8,9.7l30.6,27.9h17.8"/>
<polyline points="219.1,306.3 196.1,267.9 181.3,267.9 212.2,318.7 212.2,341.1 226,341.1 226,318.7 256.9,267.9 242.1,267.9 "/>
<polyline class="st0" points="269.5,278.9 298,278.9 298,341.1 311.8,341.1 311.8,278.9 340.5,278.9 340.5,267.9 269.5,267.9 "/>
<path class="st0" d="M398.8,315.5h7.3c12.2,0,16.9-9.4,16.9-24.5c0-14.6-4.7-23.1-18.3-23.1h-36.9c-6.3,0-10.7,2.6-10.7,11v62.2H371
	v-57c0-4.2,1-5.2,5.2-5.2h22.3c8.8,0,10.3,3.8,10.3,12.1c0,8.4-1.2,13.5-8.8,13.5h-14.2c-4.1,0-6.2,2.1-6.2,5v1.7
	c0,2.1,1.9,4.5,3.4,6.2l23.6,23.7h17.8L398.8,316"/>
<path class="st0" d="M461.9,312.8l12-29.8c0.4-1.1,1.2-3,2.1-3c0.9,0,1.7,1.9,2.1,3l11.9,29.8 M501.1,341.1h14.5L488,275.4
	c-2.6-6.2-5.7-8.3-12-8.3c-6.6,0-9.4,2.1-12,8.3l-27.6,65.8h14.5l7.4-18.5h35.2L501.1,341.1z"/>
<path class="st0" d="M561.8,303.4c0-2.5,1.8-3.8,3.4-5.4l31.7-30h-17.1l-27.7,27.4c-2,2-3.6,5.3-3.6,8.2c0,3.6,0.6,6.9,3.8,9.7
	l30.6,27.9h17.8l-34.6-31C564,308.3,561.8,306.4,561.8,303.4"/>
<rect x="530.7" y="267.9" class="st0" width="13.8" height="73.2"/>
<path d="M28.5,370.2h3c3.2,0,4.2-2.3,4.2-5.8c0-3.4-1.1-5.5-4.4-5.5h-8.5c-1.7,0-2.7,0.8-2.7,2.8v15.5h2.4v-15.1
	c0-1,0.5-1.3,1.3-1.3h6.5c2.5,0,2.8,1.3,2.8,3.6c0,2.2-0.2,3.8-2.4,3.8h-4.5c-0.7,0-1.1,0.4-1.1,0.9v0.4c0,0.4,0.3,0.8,0.7,1.2
	l7,6.4H36l-7.5-6.8"/>
<path d="M49,373.9v-5.1h11.2v-2H49v-4.7c0-0.9,0.2-1.2,1.2-1.2h10.2v-2H49.1c-1.6,0-2.6,0.6-2.6,2.6v13.1c0,1.8,1,2.6,2.6,2.6h11.4
	v-2H50.2C49.2,375.2,49,374.8,49,373.9"/>
<path d="M74.4,370.2l3.5-8.4c0.2-0.4,0.3-0.9,0.6-0.9c0.3,0,0.5,0.5,0.7,0.9l3.4,8.4 M78.5,358.6c-1.4,0-2,0.7-2.5,2l-7,16.5h2.6
	l2-5h9.7l2.1,5H88l-6.9-16.5C80.5,359.4,79.8,358.6,78.5,358.6"/>
<path d="M99.7,374.1v-15.2h-2.4v16.1c0,1.7,1,2.2,2.3,2.2H111v-2h-10.1C99.9,375.2,99.7,374.9,99.7,374.1"/>
<path d="M147.8,373.9c0,0.9-0.3,1.2-1.2,1.2H142c-4.2,0-5.5-2.2-5.5-7.2c0-5,1.3-7.2,5.9-7.2h7.5v-2h-8.3c-6.3,0-7.6,4.1-7.6,9.1
	c0,5.1,1.4,9.1,7.3,9.1h6.6c1.6,0,2.4-0.7,2.4-2.4v-6.3h-2.4"/>
<path d="M164.9,370.2l3.5-8.4c0.2-0.4,0.3-0.9,0.6-0.9c0.3,0,0.5,0.5,0.7,0.9l3.4,8.4 M169,358.6c-1.4,0-2,0.7-2.5,2l-7,16.5h2.6
	l2-5h9.7l2.1,5h2.6l-6.9-16.5C171,359.4,170.3,358.6,169,358.6"/>
<path d="M207.1,358.6c-1.6,0-2.1,0.9-2.6,2.1l-5.5,13.5c-0.1,0.3-0.3,0.6-0.5,0.6c-0.2,0-0.3-0.3-0.5-0.6l-5.5-13.5
	c-0.5-1.2-1-2.1-2.6-2.1c-1.4,0-2.3,0.7-2.3,2.1v16.4h2.4l-0.1-15.5c0-0.3,0.1-0.5,0.3-0.5c0.2,0,0.4,0.3,0.5,0.6l5.4,13.6
	c0.5,1.3,1,2.1,2.2,2.1c1.3,0,1.7-0.8,2.2-2.1l5.5-13.6c0.1-0.3,0.3-0.6,0.5-0.6c0.1,0,0.3,0.1,0.3,0.5l-0.1,15.5h2.4v-16.4
	C209.5,359.4,208.5,358.6,207.1,358.6"/>
<path d="M223.1,373.9v-5.1h11.2v-2h-11.2v-4.7c0-0.9,0.2-1.2,1.2-1.2h10.2v-2h-11.3c-1.6,0-2.6,0.6-2.6,2.6v13.1
	c0,1.8,1,2.6,2.6,2.6h11.4v-2h-10.3C223.3,375.2,223.1,374.8,223.1,373.9"/>
<path class="st0" d="M278,363.8c-2.6,0-4.7,2-4.7,4.7c0,2.6,2,4.7,4.7,4.7c2.6,0,4.7-2,4.7-4.7C282.7,365.8,280.7,363.8,278,363.8"
	/>
<path d="M330.7,370.2h3c3.2,0,4.2-2.3,4.2-5.8c0-3.4-1.1-5.5-4.4-5.5h-8.5c-1.7,0-2.7,0.8-2.7,2.8v15.5h2.4v-15.1
	c0-1,0.5-1.3,1.3-1.3h6.5c2.5,0,2.8,1.3,2.8,3.6c0,2.2-0.2,3.8-2.4,3.8h-4.5c-0.7,0-1.1,0.4-1.1,0.9v0.4c0,0.4,0.3,0.8,0.7,1.2
	l7,6.4h3.2l-7.5-6.8"/>
<path d="M351.2,373.9v-5.1h11.2v-2h-11.2v-4.7c0-0.9,0.2-1.2,1.2-1.2h10.2v-2h-11.3c-1.6,0-2.6,0.6-2.6,2.6v13.1
	c0,1.8,1,2.6,2.6,2.6h11.4v-2h-10.4C351.3,375.2,351.2,374.8,351.2,373.9"/>
<path d="M376.5,370.2l3.5-8.4c0.2-0.4,0.3-0.9,0.6-0.9c0.3,0,0.5,0.5,0.7,0.9l3.4,8.4 M380.7,358.6c-1.4,0-2,0.7-2.5,2l-7,16.5h2.6
	l2-5h9.7l2.1,5h2.6l-6.9-16.5C382.7,359.4,382,358.6,380.7,358.6"/>
<path d="M401.8,374.1v-15.2h-2.4v16.1c0,1.7,1,2.2,2.3,2.2h11.4v-2H403C402.1,375.2,401.8,374.9,401.8,374.1"/>
<path d="M445.1,370.2h3c3.2,0,4.2-2.3,4.2-5.8c0-3.4-1.1-5.5-4.4-5.5h-8.5c-1.7,0-2.7,0.8-2.7,2.8v15.5h2.4v-15.1
	c0-1,0.5-1.3,1.3-1.3h6.5c2.5,0,2.8,1.3,2.8,3.6c0,2.2-0.2,3.8-2.4,3.8h-4.5c-0.7,0-1.1,0.4-1.1,0.9v0.4c0,0.4,0.3,0.8,0.7,1.2
	l7,6.4h3.2l-7.5-6.8"/>
<path d="M465.6,373.9v-5.1h11.2v-2h-11.2v-4.7c0-0.9,0.2-1.2,1.2-1.2H477v-2h-11.3c-1.6,0-2.6,0.6-2.6,2.6v13.1c0,1.8,1,2.6,2.6,2.6
	h11.4v-2h-10.4C465.8,375.2,465.6,374.8,465.6,373.9"/>
<path d="M498.1,368l-6.9-2.3c-1.6-0.5-1.7-1.5-1.7-2.5c0-1.7,0.7-2.4,2.1-2.4h9.5v-2h-9.9c-2.9,0-4.2,1.7-4.2,4.3
	c0,2.5,0.9,3.8,3.1,4.5l7.2,2.4c1.8,0.6,2,1.6,2,2.5c0,1.6-0.6,2.6-1.9,2.6h-10.2v2h10.9c2.8,0,3.8-2.1,3.8-4.5
	C501.9,369.7,500.5,368.8,498.1,368"/>
<path d="M525,370.7c0,3.4-1.4,4.6-5,4.6c-3.7,0-5-1.2-5-4.6v-11.9h-2.4V371c0,4.8,2.9,6.4,7.5,6.4c4.6,0,7.5-1.5,7.5-6.4v-12.1H525"
	/>
<path d="M541.1,374.1v-15.2h-2.4v16.1c0,1.7,1,2.2,2.3,2.2h11.4v-2h-10.1C541.3,375.2,541.1,374.9,541.1,374.1"/>
<polyline points="557.1,360.8 564.5,360.8 564.5,377.1 566.9,377.1 566.9,360.8 574.3,360.8 574.3,358.8 557.1,358.8 "/>
<path d="M594.3,368l-6.9-2.3c-1.6-0.5-1.7-1.5-1.7-2.5c0-1.7,0.7-2.4,2.1-2.4h9.5v-2h-9.9c-2.9,0-4.2,1.7-4.2,4.3
	c0,2.5,0.9,3.8,3.1,4.5l7.2,2.4c1.8,0.6,2,1.6,2,2.5c0,1.6-0.6,2.6-1.9,2.6h-10.2v2h10.9c2.8,0,3.8-2.1,3.8-4.5
	C598.1,369.7,596.8,368.8,594.3,368"/>
<polyline points="602.8,269.2 605.9,269.2 605.9,277.2 607.1,277.2 607.1,269.2 610.2,269.2 610.2,268.1 602.8,268.1 "/>
<path d="M618.3,268.1l-2.6,7.7h0l-2.6-7.7h-1.8v9.1h1.2v-5.4c0-0.3,0-1.4,0-2.3h0l2.6,7.6h1.2l2.6-7.6h0c0,0.8,0,2,0,2.3v5.4h1.2
	v-9.1"/>
</svg>
