<?xml version="1.0" encoding="UTF-8"?>
<svg id="Layer_2" data-name="Layer 2" xmlns="http://www.w3.org/2000/svg" viewBox="0 0 292.03 29.85">
  <defs>
    <style>
      .cls-1 {
        fill: #878787;
      }

      .cls-1, .cls-2 {
        stroke-width: 0px;
      }

      .cls-2 {
        fill: #ec6a24;
      }
    </style>
  </defs>
  <g id="Layer_1-2" data-name="Layer 1">
    <rect class="cls-1" x="165.36" y="5.58" width="3.9" height="18.67"/>
    <path class="cls-1" d="M115.98,9.51l4.67,7.81h-9.34l4.67-7.81ZM113.92,5.59l-11.21,18.67h4.47l2.09-3.52h13.42l2.09,3.52h4.47l-11.21-18.67h-4.11,0Z"/>
    <polygon class="cls-1" points="183.23 5.59 169.37 14.91 183.28 24.25 189.93 24.25 176.02 14.91 189.89 5.59 183.23 5.59"/>
    <polygon class="cls-1" points="222.1 5.58 212.22 19.58 202.36 5.58 197.3 5.58 197.3 24.25 201.21 24.25 201.21 10.53 210.83 24.25 213.62 24.25 223.25 10.53 223.25 24.25 227.15 24.25 227.15 5.58 222.1 5.58"/>
    <path class="cls-1" d="M247.65,9.51l4.67,7.81h-9.34l4.67-7.81ZM245.6,5.59l-11.21,18.67h4.47l2.09-3.52h13.42l2.09,3.52h4.47l-11.21-18.67s-4.11,0-4.11,0Z"/>
    <polygon class="cls-1" points="288.12 5.59 288.12 19.85 273.09 5.59 268.21 5.59 268.21 24.25 272.12 24.25 272.12 9.98 287.17 24.25 292.03 24.25 292.03 5.59 288.12 5.59"/>
    <polygon class="cls-1" points="44.57 5.57 44.57 8.99 53.57 8.99 53.57 24.24 57.48 24.24 57.48 8.99 65.47 8.99 67.5 5.57 44.57 5.57"/>
    <path class="cls-1" d="M153.31,18.52c-.4,1.36-1.67,2.33-3.1,2.33h-8.41c-1.55,0-2.88-.95-3.17-2.61-.39-2.27-.43-4.47-.02-6.58.32-1.65,1.64-2.73,3.19-2.73s8.41,0,8.41,0c1.45,0,2.71.95,3.1,2.3l3.31-2.23c-.94-1.83-2.94-3.47-5.82-3.47h-9.72c-3.16,0-5.43,2.21-6.16,4.62-.77,2.52-.73,6.95-.02,9.34.77,2.56,2.94,4.7,6.19,4.7h9.72c2.9,0,4.89-1.65,5.83-3.48l-3.32-2.24v.02Z"/>
    <path class="cls-1" d="M90.06,14.91h-11.36v-5.97h11.36c1.62,0,2.92,1.3,2.97,2.99-.05,1.7-1.36,2.99-2.97,2.99M96.54,11.93c0-3.67-2.66-6.34-5.93-6.34h-15.81v18.65h3.91v-6.01h9.8l3.58,6.02h4.46l-3.85-6.42c2.25-.89,3.85-3.15,3.85-5.91"/>
    <path class="cls-2" d="M27.54,0c1.27,0,2.3,1.03,2.3,2.3v25.24c0,1.27-1.03,2.3-2.3,2.3h-15.66c-.22,0-.4-.19-.38-.42C12.91,17.42,19.3,4.71,23.54.04c.03-.03.06-.04.11-.04h3.89Z"/>
    <path class="cls-2" d="M2.3,0h19.06c.05,0,.07.06.04.09C13.5,6.7,7.3,20.2,4.71,29.47c-.06.22-.26.38-.49.38h-1.91c-1.27,0-2.3-1.03-2.3-2.3V2.3C0,1.03,1.03,0,2.3,0Z"/>
  </g>
</svg>